<?xml version="1.0" standalone="no"?>
<!DOCTYPE svg PUBLIC "-//W3C//DTD SVG 20010904//EN"
 "http://www.w3.org/TR/2001/REC-SVG-20010904/DTD/svg10.dtd">
<svg version="1.0" xmlns="http://www.w3.org/2000/svg"
 width="187.000000pt" height="186.000000pt" viewBox="0 0 187.000000 186.000000"
 preserveAspectRatio="xMidYMid meet">
<metadata>
Created by potrace 1.11, written by Peter Selinger 2001-2013
</metadata>
<g transform="translate(0.000000,186.000000) scale(0.100000,-0.100000)"
fill="#000000" stroke="none">
<path d="M90 1837 c-30 -16 -51 -37 -67 -67 l-23 -43 0 -797 0 -797 23 -43
c16 -30 37 -51 67 -67 l43 -23 798 0 c539 0 807 3 826 11 38 14 83 57 99 96
21 48 21 1598 0 1646 -16 39 -61 82 -99 96 -19 8 -287 11 -826 11 l-798 0 -43
-23z m1696 -13 c15 -11 37 -33 48 -48 21 -27 21 -35 21 -846 0 -811 0 -819
-21 -846 -11 -15 -33 -37 -48 -48 -27 -21 -37 -21 -838 -24 -803 -2 -811 -2
-854 18 -31 16 -48 33 -63 64 -21 42 -21 55 -21 836 0 780 0 794 21 836 14 30
32 48 62 63 42 21 48 21 854 19 802 -3 812 -3 839 -24z"/>
<path d="M333 961 c-117 -81 -222 -156 -233 -166 -19 -17 -46 -92 -37 -102 3
-2 32 1 66 8 120 25 259 -30 322 -129 35 -55 59 -130 59 -184 l0 -38 414 0
414 0 205 166 205 166 -10 30 c-6 17 -25 38 -42 49 -29 18 -54 19 -346 19
l-315 1 -29 65 c-70 156 -243 266 -414 263 -44 0 -61 -10 -259 -148z m359 128
c124 -27 241 -117 298 -229 29 -58 38 -100 22 -100 -5 0 -17 -8 -28 -19 -11
-10 -99 -82 -194 -160 l-175 -141 -11 42 c-29 115 -125 233 -232 287 -50 25
-120 44 -199 53 -17 2 28 38 175 140 218 151 222 153 344 127z m-430 -290
c160 -34 311 -182 334 -328 l7 -41 324 0 c271 0 329 -3 353 -15 17 -9 30 -17
30 -19 0 -3 3 -11 6 -20 6 -14 -33 -16 -394 -16 l-399 0 -6 54 c-15 149 -121
267 -266 297 -48 10 -73 11 -118 1 -31 -6 -58 -10 -60 -9 -1 2 2 20 8 40 18
65 67 80 181 56z m1422 -43 c21 -9 37 -24 43 -43 11 -29 9 -30 -190 -191
l-200 -162 -18 29 c-10 16 -27 32 -38 36 -12 3 -21 9 -20 13 0 4 89 77 198
162 109 85 197 157 196 158 -2 2 -95 -69 -207 -157 l-203 -161 -308 0 -309 0
114 92 c62 51 153 125 203 165 l89 73 308 0 c241 0 316 -3 342 -14z"/>
<path d="M412 958 l-133 -92 48 -11 c122 -29 237 -124 289 -239 16 -36 32 -66
35 -66 5 0 209 153 288 216 2 2 -2 24 -9 50 -31 111 -222 234 -363 234 -12 0
-82 -41 -155 -92z m230 71 c139 -30 257 -127 284 -233 5 -21 -10 -36 -132
-131 l-138 -106 -33 66 c-57 112 -148 188 -292 242 -21 8 -14 15 95 91 65 45
129 82 141 82 12 0 46 -5 75 -11z"/>
</g>
</svg>
