<?xml version="1.0" standalone="no"?>
<!DOCTYPE svg PUBLIC "-//W3C//DTD SVG 20010904//EN"
 "http://www.w3.org/TR/2001/REC-SVG-20010904/DTD/svg10.dtd">
<svg version="1.0" xmlns="http://www.w3.org/2000/svg"
 width="624.000000pt" height="620.000000pt" viewBox="0 0 624.000000 620.000000"
 preserveAspectRatio="xMidYMid meet">
<metadata>
Created by potrace 1.11, written by Peter Selinger 2001-2013
</metadata>
<g transform="translate(0.000000,620.000000) scale(0.100000,-0.100000)"
fill="#000000" stroke="none">
<path d="M375 6158 c-179 -96 -240 -158 -329 -335 l-36 -73 0 -2653 0 -2653
52 -100 c72 -135 157 -220 292 -291 l100 -53 2105 0 c2044 1 3129 10 3259 29
42 6 84 21 120 43 74 44 190 159 230 230 42 73 48 143 62 663 13 506 13 3764
0 4270 -13 493 -21 593 -54 650 -66 112 -170 211 -274 261 -47 22 -72 26 -245
35 -118 7 -1158 12 -2697 15 l-2505 5 -80 -43z m4320 -8 c995 -9 1155 -16
1232 -50 52 -23 191 -160 216 -213 42 -87 42 -115 42 -2787 0 -2672 0 -2700
-42 -2787 -25 -52 -164 -190 -215 -213 -77 -34 -232 -41 -1118 -50 -1161 -12
-3991 -12 -4202 0 -214 12 -275 31 -381 114 -53 42 -113 135 -137 214 -42 134
-44 288 -44 2717 0 2433 2 2593 44 2727 48 154 175 274 327 309 26 6 111 14
188 18 203 11 2953 12 4090 1z"/>
<path d="M1900 3687 c-107 -25 -203 -84 -690 -422 -537 -372 -858 -603 -885
-639 -51 -67 -127 -279 -110 -306 9 -15 59 -12 186 9 172 29 225 32 332 21
392 -41 709 -256 857 -584 49 -107 90 -238 100 -321 12 -94 36 -150 85 -200
52 -51 116 -78 190 -79 33 -1 611 0 1285 2 l1225 2 680 551 c469 380 679 556
677 567 -2 9 -13 41 -25 72 -24 66 -113 164 -172 191 -91 40 -134 42 -1173 48
l-1003 6 -67 151 c-106 234 -224 398 -400 556 -199 178 -500 323 -755 363
-141 22 -274 26 -337 12z m335 -42 c340 -69 574 -193 810 -430 170 -170 273
-330 340 -529 33 -99 31 -136 -11 -156 -17 -8 -82 -58 -145 -111 -259 -216
-1009 -828 -1156 -941 -9 -7 -16 6 -28 49 -61 222 -100 318 -188 458 -76 123
-167 234 -279 340 -231 221 -474 332 -863 395 -71 12 -132 23 -134 25 -20 20
125 136 493 394 525 367 711 481 838 515 80 22 186 19 323 -9z m-1480 -960
c138 -21 272 -58 382 -106 442 -194 795 -613 862 -1024 6 -38 14 -82 17 -97
l5 -27 1037 -4 c750 -3 1058 -7 1112 -16 87 -14 189 -65 206 -102 25 -53 26
-67 3 -79 -39 -22 -400 -29 -1445 -30 -1014 -2 -1032 -1 -1071 18 -71 37 -133
117 -133 174 0 28 -26 156 -45 219 -78 266 -300 532 -550 656 -119 60 -257
102 -403 123 -79 11 -174 3 -357 -29 -60 -11 -113 -16 -118 -12 -10 10 27 149
53 202 67 130 202 170 445 134z m4673 -135 c150 -12 186 -21 248 -63 35 -23
57 -48 78 -89 58 -114 77 -94 -803 -806 l-483 -391 -48 72 c-58 88 -91 120
-152 146 -27 11 -48 27 -48 35 0 20 113 117 419 359 581 461 850 677 857 689
6 10 4 10 -7 2 -8 -6 -61 -46 -119 -89 -149 -111 -532 -411 -895 -699 l-310
-246 -1029 0 -1028 0 78 63 c112 90 802 651 1059 861 l220 179 920 -7 c506 -3
975 -10 1043 -16z"/>
<path d="M1795 3452 c-49 -27 -124 -69 -165 -95 -104 -65 -679 -461 -680 -468
0 -3 46 -16 103 -29 127 -28 216 -60 332 -118 237 -118 463 -324 602 -547 17
-27 64 -117 103 -198 40 -82 79 -151 86 -154 8 -3 44 17 81 43 101 71 566 420
737 553 l148 115 -6 49 c-24 180 -123 345 -301 499 -247 216 -600 375 -869
394 l-81 5 -90 -49z m205 3 c439 -52 855 -309 1029 -637 49 -93 75 -171 66
-205 -14 -59 -148 -174 -634 -547 -134 -104 -249 -190 -255 -192 -6 -2 -42 58
-81 133 -38 75 -99 182 -136 237 -182 271 -459 483 -817 623 -103 40 -105 44
-46 100 27 27 127 102 221 168 317 221 524 340 572 331 14 -3 51 -8 81 -11z"/>
<path d="M3508 2425 c-24 -26 -38 -52 -38 -69 0 -25 3 -26 49 -26 46 0 53 3
95 48 26 27 46 57 46 70 0 20 -4 22 -57 21 -55 -1 -60 -3 -95 -44z"/>
<path d="M3928 2415 c-24 -26 -38 -52 -38 -69 0 -25 3 -26 49 -26 46 0 53 3
95 48 26 27 46 57 46 70 0 20 -4 22 -57 21 -55 -1 -60 -3 -95 -44z"/>
<path d="M4328 2405 c-24 -26 -38 -52 -38 -69 0 -25 3 -26 49 -26 46 0 53 3
95 48 26 27 46 57 46 70 0 20 -4 22 -57 21 -55 -1 -60 -3 -95 -44z"/>
<path d="M4993 1937 c-347 -282 -632 -518 -632 -525 -1 -8 5 -12 13 -10 23 5
1275 1022 1276 1036 0 6 -6 12 -12 11 -7 0 -297 -231 -645 -512z"/>
<path d="M4738 2395 c-24 -26 -38 -52 -38 -69 0 -25 3 -26 49 -26 46 0 53 3
95 48 26 27 46 57 46 70 0 20 -4 22 -57 21 -55 -1 -60 -3 -95 -44z"/>
<path d="M5091 1842 c-333 -279 -607 -513 -609 -519 -2 -7 1 -13 8 -13 16 0
1224 1010 1228 1026 2 8 -2 14 -10 13 -7 0 -285 -228 -617 -507z"/>
<path d="M3278 2225 c-24 -26 -38 -52 -38 -69 0 -25 3 -26 49 -26 46 0 53 3
95 48 26 27 46 57 46 70 0 20 -4 22 -57 21 -55 -1 -60 -3 -95 -44z"/>
<path d="M4371 2077 c-124 -106 -226 -198 -229 -204 -3 -10 14 -13 65 -13 l68
1 213 185 c235 205 249 224 160 223 l-53 0 -224 -192z"/>
<path d="M3698 2215 c-24 -26 -38 -52 -38 -69 0 -25 3 -26 49 -26 46 0 53 3
95 48 26 27 46 57 46 70 0 20 -4 22 -57 21 -55 -1 -60 -3 -95 -44z"/>
<path d="M4098 2205 c-24 -26 -38 -52 -38 -69 0 -25 3 -26 49 -26 46 0 53 3
95 48 26 27 46 57 46 70 0 20 -4 22 -57 21 -55 -1 -60 -3 -95 -44z"/>
<path d="M3018 2005 c-24 -26 -38 -52 -38 -69 0 -25 3 -26 49 -26 46 0 53 3
95 48 26 27 46 57 46 70 0 20 -4 22 -57 21 -55 -1 -60 -3 -95 -44z"/>
<path d="M3438 1995 c-24 -26 -38 -52 -38 -69 0 -25 3 -26 49 -26 46 0 53 3
95 48 26 27 46 57 46 70 0 20 -4 22 -57 21 -55 -1 -60 -3 -95 -44z"/>
<path d="M3838 1985 c-24 -26 -38 -52 -38 -69 0 -25 3 -26 49 -26 46 0 53 3
95 48 26 27 46 57 46 70 0 20 -4 22 -57 21 -55 -1 -60 -3 -95 -44z"/>
<path d="M2748 1795 c-24 -26 -38 -52 -38 -69 0 -25 3 -26 49 -26 46 0 53 3
95 48 26 27 46 57 46 70 0 20 -4 22 -57 21 -55 -1 -60 -3 -95 -44z"/>
<path d="M3168 1785 c-24 -26 -38 -52 -38 -69 0 -25 3 -26 49 -26 46 0 53 3
95 48 26 27 46 57 46 70 0 20 -4 22 -57 21 -55 -1 -60 -3 -95 -44z"/>
<path d="M3568 1775 c-24 -26 -38 -52 -38 -69 0 -25 3 -26 49 -26 46 0 53 3
95 48 26 27 46 57 46 70 0 20 -4 22 -57 21 -55 -1 -60 -3 -95 -44z"/>
<path d="M3988 1775 c-24 -26 -38 -52 -38 -69 0 -25 3 -26 49 -26 46 0 53 3
95 48 26 27 46 57 46 70 0 20 -4 22 -57 21 -55 -1 -60 -3 -95 -44z"/>
</g>
</svg>
