<?xml version="1.0" encoding="utf-8"?>

<!-- License Agreement at http://iconmonstr.com/license/ -->

<!DOCTYPE svg PUBLIC "-//W3C//DTD SVG 1.1//EN" "http://www.w3.org/Graphics/SVG/1.1/DTD/svg11.dtd">
<svg version="1.1" xmlns="http://www.w3.org/2000/svg" xmlns:xlink="http://www.w3.org/1999/xlink" x="0px" y="0px"
	 width="512px" height="512px" viewBox="0 0 512 512" enable-background="new 0 0 512 512" xml:space="preserve">
<path id="wrench-9-icon" fill="#FFFFFF" d="M256.602,141.97l-77.148-55.374L256.602,31v36.577c32.572,0.112,65.121,8.584,94.309,25.435
	c58.764,33.927,94.962,96.628,94.962,164.481c0,22.008-3.812,43.473-10.962,63.591l-29.74-29.74
	c2.492-10.98,3.803-22.321,3.803-33.851c0-54.672-29.166-105.19-76.513-132.526c-23.479-13.554-49.657-20.379-75.858-20.49V141.97z
	 M230.296,408.521c-25.827-4.41-50.531-15.44-71.466-32.665c-42.218-34.735-62.696-89.354-53.724-143.286
	c2.742-16.473,7.688-31.303,17.709-50.274l-27.083-27.084c-13.759,23.194-22.711,45.37-27.024,71.302
	c-11.138,66.934,14.278,134.726,66.676,177.838c26.026,21.412,56.745,35.112,88.855,40.568L218.235,481l85.227-42.177
	l-67.011-67.285L230.296,408.521z M260.882,351.017c15.618-0.868,30.901,4.963,41.962,16.023l25.35,25.349
	c-0.001,0.001-0.003,0.001-0.004,0.002l27.02,27.019c26.059-15.972,47.437-37.703,62.875-63.016l-27.04-27.039
	c-0.005,0.01-0.01,0.019-0.015,0.029l-25.265-25.265c-11.069-11.069-16.893-26.332-16.023-41.962
	c1.437-25.846-7.713-52.168-27.456-71.911c-26.38-26.38-64.5-33.85-97.537-22.426l59.98,59.981
	c1.377,23.399-34.804,59.58-58.203,58.203l-59.979-59.981c-11.425,33.038-3.955,71.158,22.425,97.537
	C208.714,343.305,235.036,352.453,260.882,351.017z"/>
</svg>
