<?xml version="1.0" encoding="utf-8"?>


<!-- The icon can be used freely in both personal and commercial projects with no attribution required, but always appreciated. 
You may NOT sub-license, resell, rent, redistribute or otherwise transfer the icon without express written permission from iconmonstr.com -->


<!DOCTYPE svg PUBLIC "-//W3C//DTD SVG 1.1//EN" "http://www.w3.org/Graphics/SVG/1.1/DTD/svg11.dtd">

<svg version="1.1" xmlns="http://www.w3.org/2000/svg" xmlns:xlink="http://www.w3.org/1999/xlink" x="0px" y="0px"

	 width="512px" height="512px" viewBox="0 0 512 512" enable-background="new 0 0 512 512" xml:space="preserve">

<path id="error-6-icon" fill="#FF3333" d="M324.76,90.472l97.24,97.24v137.52l-97.24,97.24H187.24L90,325.231v-137.52l97.24-97.24H324.76

	 M341.328,50.472H170.672L50,171.144V341.8l120.672,120.672h170.656L462,341.8V171.144L341.328,50.472L341.328,50.472z

	 M321.072,356.956l-64.071-64.068l-64.07,64.076l-34.415-34.434l64.058-64.067l-64.065-64.062l34.435-34.414l64.055,64.046

	l64.044-64.054l34.443,34.42l-64.055,64.06l64.062,64.054L321.072,356.956z"/>

</svg>

