<?xml version="1.0" encoding="utf-8"?>

<!-- License Agreement at http://iconmonstr.com/license/ -->

<!DOCTYPE svg PUBLIC "-//W3C//DTD SVG 1.1//EN" "http://www.w3.org/Graphics/SVG/1.1/DTD/svg11.dtd">
<svg version="1.1" xmlns="http://www.w3.org/2000/svg" xmlns:xlink="http://www.w3.org/1999/xlink" x="0px" y="0px"
	 width="512px" height="512px" viewBox="0 0 512 512" enable-background="new 0 0 512 512" xml:space="preserve">
<path id="pen-12-icon" fill="#99146F" d="M263.017,273.711c19.932-1.059,49.064-6.658,71.861-19.371c16.539-25.375,27.48-46.08,38.24-68.66
	c-14.793,1.1-31.838-0.15-47.047-4.412c18.357-3.139,41.402-9.693,58.83-20.873c21.598-30.621,37.562-79.977,43.029-110.365
	c-49.416-0.822-95.709,15.279-126.986,35.436c-10.561,12.021-19.707,41.012-21.869,56.357c-4.771-11.078-8.238-28.83-4.168-43.643
	c-25.072,13.16-47.012,28.197-71.822,49.09c-12.361,26.23-14.328,56.477-13.189,73.416c-6.734-9.5-15.744-27.979-14.469-48.225
	c-44.547,42.99-75.271,99.285-46.121,160.066c32.311-33.328,69.457-64.943,92.061-79.638
	C169.167,312.527,120.501,391.027,84.069,462l43.049-13.488c18.633-33.984,35.383-63.234,50.428-84.201
	c55.525,7.264,104.799-37.227,138.037-82.316C302.341,285.254,276.948,280.994,263.017,273.711z"/>
</svg>
