<?xml version="1.0" encoding="utf-8"?>

<!-- License Agreement at http://iconmonstr.com/license/ -->

<!DOCTYPE svg PUBLIC "-//W3C//DTD SVG 1.1//EN" "http://www.w3.org/Graphics/SVG/1.1/DTD/svg11.dtd">
<svg version="1.1" xmlns="http://www.w3.org/2000/svg" xmlns:xlink="http://www.w3.org/1999/xlink" x="0px" y="0px"
	 width="512px" height="512px" viewBox="0 0 512 512" enable-background="new 0 0 512 512" xml:space="preserve">
<path id="pen-4-icon" d="M373.88,239.889v75.475c0,55.344-75.851,135.625-137.29,135.625H50V79.639h268.237l-19.241,19.242
	c-4.844,4.844-8.485,10.572-10.766,16.812H86.054v299.243c106.664,0,121.088,0,149.987,0c53.051,0,31.547-68.584,31.547-68.584
	s70.238,22.792,70.238-34.102c0-6.304,0-19.372,0-35.915c0.099-0.099,0.198-0.193,0.297-0.293L373.88,239.889z M198.434,284.198
	h-79.859v25.376h79.859V284.198z M451.92,125.715c13.44-13.441,13.44-35.231,0-48.672c-13.44-13.44-35.232-13.44-48.671,0
	l-85.457,85.459l48.669,48.673L451.92,125.715z M350.649,221.027l-33.771,33.77c-19.532,19.532-38.306,29.357-64.443,38.29
	L235.88,276.53c8.931-26.139,18.756-44.913,38.289-64.448l33.77-33.768L350.649,221.027z M230.579,307.653
	c-2.56,2.562-6.71,2.562-9.271,0.001c-2.56-2.561-2.56-6.709,0-9.268l9.603-9.603l9.272,9.269L230.579,307.653z M320.077,142.473
	c-6.218-6.215-6.054-16.13,0.163-22.348l54.366-54.365c6.22-6.221,16.135-6.384,22.352-0.168L320.077,142.473z"/>
</svg>
