<svg xmlns="http://www.w3.org/2000/svg" xmlns:xlink="http://www.w3.org/1999/xlink" version="1.1" x="0px" y="0px" width="512px" height="512px" viewBox="0 0 512 512" enable-background="new 0 0 512 512" xml:space="preserve">

<path fill="#FFFFFF" d="M50.918 446.647C67.583 413.5 86.1 368 85.1 336.276C62.684 309.2 50 274.3 50 238.8 c0-100.183 97.19-173.431 206-173.431c108.132 0 206 72.7 206 173.431c0 104.894-115.562 202.853-274.119 163.9 C159.083 420.5 95.6 438.5 50.9 446.647z M256 105.469c-91.469 0-165.884 59.805-165.884 133.3 c0 38.7 16.7 63 40.3 87.055c-4.789 35.662-16.289 66.662-16.289 66.662s34-9 72.629-31.56 c147.805 39.2 235.171-46.094 235.171-122.157C421.883 165.3 347.5 105.5 256 105.469z"/>

</svg>
