<?xml version="1.0" encoding="utf-8"?>


<!-- The icon can be used freely in both personal and commercial projects with no attribution required, but always appreciated. 
You may NOT sub-license, resell, rent, redistribute or otherwise transfer the icon without express written permission from iconmonstr.com -->


<!DOCTYPE svg PUBLIC "-//W3C//DTD SVG 1.1//EN" "http://www.w3.org/Graphics/SVG/1.1/DTD/svg11.dtd">

<svg version="1.1" xmlns="http://www.w3.org/2000/svg" xmlns:xlink="http://www.w3.org/1999/xlink" x="0px" y="0px"

	 width="512px" height="512px" viewBox="0 0 512 512" enable-background="new 0 0 512 512" xml:space="preserve">

<path id="globe-5-icon" d="M338.123,174.944c0.887,3.007-2.75,3.575-4.039,2.926c-0.742-0.374-1.079,0.461-1.612,0.714

	c-0.023,0.012-0.051,0.023-0.075,0.035c-0.38,0.009-0.774-0.081-1.036-0.151c-0.642-0.18-3.333-0.202-4.336-0.622

	c-0.004-0.002-0.009-0.004-0.015-0.007c-0.221-0.109-3.629-1.392-3.878-1.315c-1.087,0.333-2.367-0.452-3.372,0.335

	c-0.596,0.461-1.315,0.711-1.902,1.176c-0.818,0.646-0.851,0.671-0.864,0.86c-0.002,0.018-0.003,0.037-0.005,0.055

	c-0.023,0.217-0.047,0.403-0.308,0.515c-0.319,0.136-0.824,0.211-1.074,0.211c-0.734,0.003-1.466,0.13-2.199,0.045

	c-0.662-0.075-1.3,0.374-1.965,0.081c-0.001,0-0.001,0-0.003,0c-1.22-0.516-2.26-1.352-3.029-2.432l-0.767-1.074

	c0-0.001-0.001-0.001-0.001-0.002c-0.055-0.079-0.06-0.181-0.012-0.265c0.064-0.114,0.198-0.201,0.466,0.056

	c0.001,0.002,0.003,0.003,0.005,0.005c0.04,0.042,0.104,0.052,0.153,0.025c0.052-0.028,0.077-0.086,0.064-0.142

	c-0.151-0.636-0.417-1.583-0.2-2.208c0.003-0.006,0.005-0.012,0.007-0.018c0.131-0.371,0.656-0.286,0.784-0.663

	c0.146-0.438-0.099-0.842-0.129-1.264c-0.017-0.198,0.195-2.053,0.195-2.059c0.031,0,0.036,0,0.036,0

	c0.354-0.168,0.51-0.434,0.585-0.737c0.199-0.798,0.554-1.536,1.052-2.191c0.136-0.179,0.283-0.592,0.647-1.618

	c0.137-0.394,0.17-0.489,0.765-0.654c0.724-0.202,1.487-0.261,2.234-0.17c0.396,0.049,0.877,0.132,1.445,0.271

	c0.051,0.013,0.094,0.047,0.117,0.094c0,0,0.001,0.001,0.001,0.002c0.032,0.063,0.01,0.141-0.054,0.176

	c-0.164,0.091-0.256,0.278-0.222,0.468c0.037,0.211,0.22,0.365,0.435,0.368c0.267,0.003,0.51-0.108,0.723-0.208

	c0.361-0.164,0.493-0.223,0.79-0.022c0.232,0.158,0.356,0.433,0.32,0.712c-0.079,0.612-0.907,0.601-0.897,1.093

	c0.005,0.202,0.136,0.378,0.327,0.44c0.945,0.284,1.612,0.967,1.904,1.804c0.011,0.033,0.025,0.065,0.042,0.097

	c0.041,0.074,0.209,0.317,0.709,0.26c0.193-0.026,2.046-1.783,2.115-1.923c0-0.001,0.001-0.001,0.001-0.002

	c0.139-0.284-0.264-0.361-0.543-0.51c-0.66-0.352-1.093-1.018-1.146-1.763c-0.055-0.746,0.277-1.467,0.88-1.91

	c0.005-0.003,0.009-0.006,0.013-0.008l3.392-1.961c0.005-0.002,0,0,0.005-0.002c0.059-0.034,0.124-0.056,0.191-0.064

	c0.003,0,0.006-0.001,0.009-0.001c0.214-0.024,1.698-0.907,2.237-0.968c0.159-0.023,0.516,0.37,0.409,0.659

	c-0.068,0.188-0.233,0.483-0.623,0.707c-0.464,0.268-1.598,0.855-1.537,1.38c0.079,0.66,0.853,0.416,1.255,0.67

	c0.305,0.195,0.201,0.333,0.118,0.613c-0.001,0.007-0.003,0.014-0.005,0.021c-0.223,0.789-0.576,1.522-1.052,2.189

	c-0.027,0.038-0.043,0.078-0.036,0.116c0.094,0.507,0.094,0.507,1.855,1.208c0.783,0.312,1.673-0.104,2.429,0.36

	c1.716,1.053,2.991,2.728,4.94,3.433C335.49,172.424,337.642,173.311,338.123,174.944z M462,256c0,113.771-92.229,206-205.999,206

	C142.229,462,50,369.771,50,256c0-113.771,92.229-206,206.001-206C369.771,50,462,142.229,462,256z M195.322,117.066

	c0.102,0.117,1.401,0.194,1.518,0.424c0.174,0.344-0.501,0.641-0.354,0.922c0.04,0.078,0.113,0.133,0.199,0.149

	c0.208,0.044-0.654,0.892-0.774,1.074c-0.198,0.3,0.062,1.086,0.511,1.067c0.457-0.018,0.749-0.297,1.179-0.794

	c0,0,1.17-0.652,1.958-1.306c0.765-0.636,2.324-0.819,2.9-1.906c0.314-0.592,0.884-0.975,1.354-1.075

	c0.202-0.043,0.406,0.071,0.477,0.267c0.063,0.271,3.657-1.319,3.529-1.947c-0.112-0.583,0.221-0.641,0.598-0.48

	c0.261,0.11,0.479,0.03,0.646-0.111c1.08-0.901,2.716-1.993,4.079-1.644c0.329,0.084,0.677,0.037,0.971-0.13

	c1.361-0.778,1.516-0.413,1.189-0.286c-0.355,0.137-1.35,0.498-1.15,0.82c0.05,0.081,0.149,0.114,0.239,0.079

	c0.584-0.231,1.194-0.352,1.821-0.362c0.87-0.015,2.156-0.158,3.304-0.767c0.049-0.026,0.101-0.052,0.15-0.078

	c0.01-0.005,0.021-0.01,0.03-0.015c2.721-1.381,3.844-2.29,4.418-1.903c0.176,0.12,0.274,0.326,0.256,0.54

	c0.003,0.002,0.007,0.004,0.011,0.007c0.446,0.314,0.921,0.01,1.456-0.127c0,0,0.435,0.445,2.074,0.424

	c-0.389,1,16.777-2.728,27.645-11.732c2.945-2.44,6.216-4.697,9.485-6.725c-2.994-0.162-6.007-0.25-9.041-0.25

	c-11.776,0-23.258,1.242-34.332,3.584c0.791,0.113,0.725,1.07,0.22,1.245c-1.334,0.461-2.847,0.476-3.97,1.446

	c-0.098,0.084-0.124,0.226-0.062,0.339c0.062,0.113,0.194,0.168,0.319,0.131c0.229-0.068,0.64-0.219,1.618-0.583

	c0.171-0.064,0.378,0.054,0.353,0.235c-0.012,0.069-0.056,0.128-0.121,0.156c-0.48,0.21-1.02,0.302-1.483,0.547

	c-0.092,0.048-0.143,0.151-0.124,0.253c0.045,0.247-0.177,0.727-0.03,0.866c0.002,0.001,0.003,0.002,0.005,0.004

	c-0.038,0.044-4.768,3.266-6.556,3.38c-0.003,0-0.006,0.001-0.009,0.001c-2.144,0.097-4.126,0.958-4.715,1.444

	c-0.595,0.492-1.241,0.911-1.933,1.255c-1.442,0.718-2.732,1.938-3.575,2.854c-0.432,0.468,0.324,0.637,0.917,0.869

	c0,0,0.406,0.13-0.223,0.22c-2.371,0.324-4.405,2.999-5.02,3.894c-0.117,0.17-0.117,0.395-0.002,0.564

	c0.003,0.006,0.008,0.011,0.012,0.017c-1.098,1.087-1.203,1.191-2.011,2.833C195.229,116.858,195.246,116.981,195.322,117.066z

	 M248.944,152.238c-0.005-0.042,0.021-0.081,0.062-0.093c0.043-0.013,0.091-0.005,0.129,0.025c0.027,0.022,0.057,0.044,0.08,0.06

	c0.146,0.098,0.235,0.112,0.289,0.074c0.322-0.232,0.666-0.45,1.013-0.643c0.186-0.103,0.297-0.312,0.401-0.718

	c0.029-0.125,0.15-0.767-0.666-1.223c-0.005-0.002-0.011-0.006-0.016-0.009c-0.067-0.038-1.583-0.818-2.012-0.582

	c-0.286,0.151-0.286,0.151-0.812-0.121c-0.019-0.078,0.01-0.158,0.072-0.207c0.599-0.462,0.598-0.469,0.586-0.6

	c-0.022-0.288-0.173-0.493-0.345-0.684c-0.151-0.166-0.167-0.412-0.039-0.595c0.003-0.003,0.004-0.006,0.006-0.009

	c0.115-0.156-0.485-1.443-0.492-1.452c-0.04-0.044-0.061-0.067-0.144-0.062c-0.251,0.017-0.516,0.024-0.768,0.023

	c-0.031,0-0.072,0.005-0.132,0.015c-0.007,0.001-0.014-0.002-0.017-0.008c-0.014-0.025-0.016-0.054-0.009-0.081

	c0.08-0.316-0.229-0.519-0.258-0.809c-0.029-0.293,0.051-0.581,0.081-0.87c0.024-0.259-0.006-0.555-0.089-0.839

	c-0.304-1.042-0.255-2.142,0.115-3.137c0.155-0.414,0.369-0.812,0.627-1.17c0.597-0.829-2.084-0.723-2.591-0.69

	c-0.039,0.002-0.077-0.017-0.098-0.051c-0.02-0.034-0.019-0.076,0.003-0.111c0.13-0.196,0.147-0.452,0.33-0.622

	c0.245-0.234,0.578-0.308,0.858-0.48c0.618-0.386,0.101-0.624-0.125-0.683c-0.538-0.139-1.104-0.211-1.66-0.212

	c-0.211,0-0.422,0.029-0.637,0.11c-0.14,0.052-0.303,0.227-0.468,0.456c-0.336,0.469-0.732,0.886-1.185,1.245

	c-0.025,0.019-0.049,0.038-0.072,0.056c-0.126,0.096-0.291,0.114-0.432,0.055c-0.083-0.035-0.176-0.035-0.259-0.001

	c-0.017,0.007-0.033,0.015-0.049,0.023c-0.154,0.081-0.269,0.201-0.352,0.336c-0.104,0.167-0.082,0.383,0.052,0.527

	c0.134,0.144,0.349,0.181,0.522,0.089c0.001,0.002,0.002,0.006,0.003,0.009c0.024,0.055,0.023,0.117-0.001,0.171

	c-0.101,0.221-0.131,0.463-0.222,0.686c-0.01,0.025-0.03,0.042-0.059,0.047c-0.04,0.007-0.081-0.011-0.104-0.046

	c-0.113-0.176-0.167-0.177-0.246-0.161c-0.007,0.002-0.017,0.004-0.024,0.005c-0.319,0.066-0.543,0.814-0.53,1.029

	c0.005,0.074,0.027,0.126,0.062,0.164c0.411,0.451,0.447,1.127,0.084,1.62c0,0,0,0-0.001,0.001

	c-0.038,0.051-0.071,0.104-0.099,0.157c-0.053,0.106-0.019,0.236,0.08,0.302c0.101,0.066,0.232,0.047,0.31-0.044

	c0.094-0.11,0.214-0.252,0.37-0.438c0.146-0.176,0.196-0.237,0.412-0.331c0.169-0.073,0.343-0.14,0.518-0.197

	c0.066-0.022,0.14-0.01,0.195,0.032s0.088,0.109,0.086,0.179c-0.017,0.401,0.118,0.838-0.286,1.153

	c-0.231,0.182-0.413,0.324-0.551,0.441c-0.136,0.114-0.173,0.308-0.09,0.464c0.085,0.157,0.266,0.233,0.437,0.184

	c0,0,0,0,0.021,0.014c0.015,0.011,0.026,0.027,0.03,0.046c0.113,0.476,0.128,0.476,0.757,0.096c0.02-0.012,0.043-0.015,0.065-0.009

	c0.011,0.003,0.02,0.01,0.025,0.02c0.086,0.167,0.224,0.3,0.393,0.381c0.234,0.114,0.409,0.331,0.465,0.595

	c0.003,0.015,0.007,0.031,0.011,0.049c0.005,0.015,0.009,0.03,0.014,0.045c0.214,0.655,0.041,1.373-0.446,1.859

	c-0.488,0.486-1.208,0.655-1.861,0.437c0,0-0.001,0-0.002,0c-0.109-0.036-0.229,0.004-0.295,0.099s-0.06,0.221,0.013,0.31

	c0.064,0.08,0.141,0.154,0.139,0.265c-0.011,0.407-0.523,0.254-0.682,0.525c-0.002,0.004-0.004,0.005-0.006,0.008

	c-0.01,0.019-0.017,0.041-0.02,0.065c-0.005,0.052,0.016,0.104,0.055,0.14c0.039,0.036,0.093,0.049,0.145,0.038

	c0.235-0.052,0.425-0.25,0.673-0.271c0.468-0.031,0.115,1.142-0.039,1.314c-0.171,0.191-1.354,0.611-1.729,0.664

	c-0.24,0.037-0.4,0.059-0.48,0.145c-0.075,0.085-0.124,0.577,0.208,0.737c0.506,0.241,0.977-0.201,1.479-0.071c0,0,0,0,0.001,0

	c0.475,0.124,0.905,0.38,1.241,0.735c0.028,0.031,0.064,0.05,0.1,0.064c0.163,0.065,0.346,0.062,0.507-0.007

	c0.039-0.017,0.078-0.04,0.11-0.069c0.133-0.117,0.272-0.157,0.415-0.162c0.107-0.004,0.207,0.064,0.241,0.167

	c0.035,0.104,0,0.217-0.09,0.281c-0.366,0.262-0.733,0.528-1.244,0.47c-0.272-0.031-0.548-0.033-0.82-0.004

	c-0.838,0.089-1.629,0.461-2.235,1.069c-0.203,0.203-0.418,0.419-0.611,0.618c-0.104,0.107-0.113,0.274-0.02,0.391

	c0.093,0.117,0.258,0.146,0.385,0.068c0.088-0.053,0.185-0.113,0.292-0.178c0.358-0.222,1.017-0.49,1.375,0.2

	c0.005,0.001,0.011,0.003,0.016,0.004c0.053,0.016,0.11,0.005,0.155-0.028c0.484-0.363,0.729-1.041,1.438-1.102

	c0.504-0.039,0.879,0.454,1.396,0.346c0.579-0.121,1.059-0.565,1.687-0.531c0.232,0.013,0.87,0.183,0.932,0.22

	c0.175,0.107,0.175,0.107,1.116,0.123c0.396,0.007,0.683,0.328,1.058,0.387c0.456,0.071,0.874-0.2,1.322-0.162

	c0.002,0,0.003,0,0.005,0c0.004,0,0.004,0,0.004,0c0.012,0,1.357-0.256,1.331-0.812c0-0.011-0.006-0.021-0.016-0.027

	c-0.006-0.003-0.011-0.007-0.017-0.01C249.322,153.27,249.008,152.782,248.944,152.238z M237.092,147.177

	c0.401-0.22,0.049-0.644,0.154-0.953c0.277-0.824,0.462-0.846,0.789-0.892c0.317-0.046,0.613-0.086,0.723-0.256

	c0.518-0.765-1.313-2.964-2.457-2.67c-1.189,0.306-2.146,2.04-2.544,2.016c-0.504-0.027-0.734-0.043-1.072,0.222

	c-0.261,0.201-0.294,0.534-0.487,0.774c-0.226,0.293-0.527,0.521-0.759,0.811c-0.194,0.238-0.265,0.448,0.007,0.694

	c0.201,0.176,0.312,0.275-0.279,1.04c-0.489,0.629-1.296,0.963-1.636,1.737c-0.121,0.281-0.104,0.839-0.064,1.062

	c0.155,0.807,1.407,0.482,2.161,0.156c0.685-0.297,1.323-0.707,2.049-0.903c0.006-0.002,0.016-0.004,0.021-0.006

	c1-0.274,1.874-0.003,2.175-0.382c0.294-0.375,0.798-1.056,1.034-1.602C237.02,147.754,236.732,147.371,237.092,147.177z

	 M148.969,316.217c-0.488-3.909-12.947-18.176-16.476-20.829c-2.786-2.095-4.797-2.11-4.797-2.115

	c0.161-1.748-0.515-3.471-1.821-4.643c-0.494-0.442-0.86-1.029-1.225-1.619c-0.489-0.793-1.354-1.274-2.285-1.276

	c-0.932,0-1.799,0.48-2.287,1.273c0,0-0.002,0.001-0.002,0.002c0.837-2.791,0.876-2.921-1.334-5.635

	c-1.186-1.454-1.34-1.315,0.091-3.996c0.206-3.659-6.955-15.334-13.3-22.486c-0.206-0.233-0.513-0.356-0.888-0.286

	c-0.649-0.598-3.788-12.141-4.484-14.851c-0.032-0.13-0.003-0.267,0.083-0.371c0.553-0.665,0.774-1.542,0.606-2.389

	c-0.139-0.701-0.412-1.516-0.455-2.227c-0.08-1.317-1.316-2.395-1.537-2.239c-0.344,0.243-0.71,0.269-1.033,0.137

	c-0.33-0.134-0.576-0.421-0.645-0.831c-0.267-1.425-1.508-2.453-2.958-2.451c-0.579,0-0.692-0.123-0.787-0.542

	C91.974,237.679,91.2,246.748,91.2,256c0,43.954,17.167,83.856,45.162,113.388c-1.267-1.648-2.632-4.575-2.643-5.015

	c-0.035-1.146-0.267-2.292-0.687-3.359c-0.355-0.906-0.77-1.798-1.18-2.689c-1.385-3.02,4.838-3.524,6.566-6.359

	c0.001-0.002,0.001-0.003,0.002-0.005c0.131-0.262,1.175-0.396,2.428,0.5c1,0.715,2.449-0.938,2.315-1.515

	c-0.414-1.852-0.418-2.153-0.189-3.835c0.388-2.875-0.396-9.999-0.734-10.96c-1.139-3.253-1.38-4.9-1.396-5.689

	c-0.011-0.577,1.539-1.017,1.818-1.982c0.565-1.948,3.889-5.562,4.918-7.302C148.474,319.666,149.187,317.958,148.969,316.217z

	 M180.677,112.633c-0.274-0.458-0.83-0.665-1.338-0.499c-0.356,0.118-1.033,0.346-1.237,0.033c-0.069-0.111-0.072-0.252-0.005-0.365

	c0.149-0.25,0.553-0.77,0.587-1.007c0.027-0.198,0.129-0.379,0.282-0.509c0.061-0.051,0.133-0.085,0.196-0.132

	c-16.104,8.495-30.629,19.573-43.019,32.693c0.051-0.012,0.104-0.014,0.157,0c1.958,0.545,1.812,0.12,3.487-1.905

	c0.973-1.176,2.737-1.615,3.716-1.958s2.604-0.501,2.606-0.501c0.943-0.176,3.648,0.436,4.434-0.2

	c0.658-0.533-0.185-0.717,0.202-1.298c0.371-0.554,0.686-1.146,0.939-1.762c0.216-0.523,0.862-0.679,1.341-0.973

	c0.815-0.501,0.028-0.499-0.129-0.766c-0.121-0.206,0.012-0.956,0.314-1.007c0.004,0,0.009,0.001,0.013,0.005

	c0.429,0.395,1.028,0.556,1.597,0.425c0.496-0.113,0.672-0.288,0.815-0.591c0.099-0.209,0.281-0.367,0.504-0.431

	c0.003-0.001,0.007-0.002,0.009-0.003c1.339-3.218-4.616-1.396-4.618-1.4c-0.24-0.477,3.143-1.556,3.671-1.708

	c0.003,0.002,0.006,0.004,0.008,0.006c0.004,0.004,0.009,0.007,0.015,0.009c0.315,0.083,0.6,0.037,0.869-0.069

	c1.609-0.632,3.426,0.159,4.06,1.767c0,0.001,0,0.001,0,0.002c0.172,0.433,0.537,0.758,0.986,0.878

	c0.529,0.141,1.056,0.293,1.617,0.083c2.889-1.077,3.729-0.153,6.14-1.223c0.007-0.002,0.015-0.006,0.021-0.009

	c3.143-1.403,3.282-8.374,7.554-12.203c0.419-0.375,0.874-0.719,1.351-1.02c0.781-0.493,1.291-1.255,1.836-1.98

	c0.26-0.345,0.552-0.686,0.854-0.995C180.875,113.65,180.944,113.081,180.677,112.633z M414.969,212.557

	c0.112,0.342,0.224,0.718,0.336,1.083c-13.45-50.797-50.511-91.937-98.755-110.979c0.334,0.266,0.516,0.69,0.446,1.13

	c-0.131,0.817-1.087,1.049-1.161,1.244c-0.228,0.599,1.316,1.386,1.769,1.84c0.25,0.251,0.259,0.655,0.021,0.917

	c-0.005,0.005-0.014,0.008-0.021,0.006c-0.763-0.184-1.569,0.012-2.162,0.526c-0.58,0.502-1.401,0.855-1.884,1.033

	c-0.284,0.104-0.55,0.267-0.772,0.474c0,0.001-0.001,0.002-0.002,0.003c-0.268-0.081-0.553-0.072-0.814,0.024

	c-1.078,0.397-1.695,2.439-1.473,3.192c0.083,0.294,0.024,0.618-0.173,0.864c-0.252,0.315-0.674,0.437-1.054,0.307

	c-0.225-0.077-0.854,0.461-0.547,0.695c0.361,0.273-0.135,0.474-0.505,0.733c-0.182,0.127-0.416,0.171-0.643,0.102

	c-1.315-0.399-1.238-0.729-1.64,0.297c-0.19,0.482-0.451,0.937-0.772,1.343c-0.206,0.259-0.182,0.633,0.058,0.864

	c1.938,1.867-0.854,1.567-1.854,1.114c-0.907-0.411-1.435,1.129,0.245,1.136c0.458,0.003,0.896,0.199,1.204,0.541

	c-0.001-0.001,0,0,0,0c0.864,0.956-1.117,0.642-2.34,0.211c-1.039-0.367-2.027-0.91-2.894-1.595

	c-0.547-0.435-0.756-1.171-0.518-1.828c0.239-0.657,0.871-1.088,1.571-1.069c1.009,0.027,1.871-0.721,1.988-1.723

	c0.116-1.002-0.553-1.926-1.54-2.133c-2.427-0.506-5.124-0.194-7.371-1.235c-1.939-0.897-3.549-0.736-4.041-1.39

	c-0.212-0.284-0.302-0.641-0.246-0.991c0,0,0-0.001,0-0.001c-1.044-0.202-1.706-0.329-2.154-0.42

	c-0.43-0.087-1.743-0.109-3.538,0.453c-3.873,1.228-7.546,4.821-7.546,4.821c-0.001,0-0.001,0-0.001,0s-0.736,1.262-1.451,2.079

	c-0.651,0.746-1.146,1.646-1.872,2.321c-0.287,0.265-0.481,0.613-0.558,0.995c0,0.001-0.001,0.003-0.002,0.003

	c-0.006,0.001-0.009,0.002-0.012,0.003c-0.379,0.108-0.674,0.406-0.78,0.785c-0.473,1.68-1.792,4.182-8.879,7.161

	c-0.001,0-0.002,0.001-0.003,0.001c-2.08,0.879-3.39,2.966-3.275,5.222s1.627,4.202,3.785,4.866c2.68,0.825,3.295-2.138,6.326-1.235

	c1.14,0.34,2.051,1.202,2.452,2.322c0.496,1.383,1.177,2.196,1.24,3.965c0.605,0.604,2.379,1.937,2.586,1.032

	c0.503-2.147,2.677-0.738,3.612-2.518c0.801-1.53-0.401-3.14,0.186-4.68c0.004-0.012,0.009-0.023,0.014-0.035

	c0.74-1.81,0.93-3.774,0.558-5.693c-0.173-0.894,0.054-2.25,0.483-4.826c0.171-1.004,2.145-1.527,2.615-2.267

	c0.82-1.28-0.55-3.728,1.495-4.186c1.023-0.228,2.86,0.245,3.1,1.304c0.086,0.376-0.003,0.771-0.242,1.074

	c-0.58,0.739-0.839,1.753-1.357,2.544c-1.044,1.594-1.271,3.599-0.604,5.385c0.574,1.54,1.501,2.933,2.97,3.051

	c0.422,0.034,0.845-0.072,1.2-0.304c0.002-0.001,0.003-0.002,0.005-0.003c0.003-0.001,0.006-0.003,0.008-0.004

	c0.005-0.001,0.006-0.001,0.01-0.003l2.107-0.738c1.745-0.611,3.631-0.731,5.438-0.338c0.001,0,0.001,0,0.002,0

	c0.172,0.037,0.308,0.168,0.354,0.339c0.045,0.17-0.011,0.352-0.143,0.468c-2.185,1.945-2.601,0.653-4.898,1.074

	c-0.787,0.141-1.39,0.775-1.49,1.568c-0.091,0.714,0.246,1.408,0.844,1.782c0.118,0.074,0.188,0.208,0.176,0.348

	c0,0.004-0.001,0.008-0.001,0.012c-0.05,0.694-0.485,1.302-1.125,1.575c-0.483,0.206-1.023,0.194-1.488-0.016

	c-0.361-0.162-0.78-0.128-1.11,0.09c-0.658,0.434-0.423,0.749-0.551,1.324c-0.204,0.919-0.152,1.878,0.152,2.768

	c0.001,0.001,0.001,0.001,0.001,0.002c0.5,1.462-2.202,4.082-3.296,3.88c-2.221-0.409-4.517-0.058-6.511,1.002

	c-0.943,0.501-2.099,0.352-2.885-0.371c-0.006-0.004-0.01-0.008-0.014-0.013c-0.525-0.48-0.026-0.694-0.684-1.106

	c-0.137-0.087-3.607,1.361-3.761,1.416c-0.159,0.058-0.335,0.039-0.479-0.051c-0.144-0.09-0.237-0.241-0.253-0.41

	c-0.002-0.006-0.002-0.012-0.003-0.017c-0.121-1-4.624-0.873-1.111-4.771c0.006-0.007,0.01-0.013,0.017-0.019

	c0.363-0.4,0.527-0.947,0.441-1.482c-0.14-0.894,0.044-1.742-0.786-2.092c-0.003,0.003-0.006,0.006-0.009,0.009

	c-1.839,1.921-2.718,4.579-2.381,7.217c0.226,2.933-1.179,2.44-2.25,2.409c-0.45-0.013-0.881,0.176-1.176,0.516

	c-0.003,0.005-0.007,0.01-0.011,0.014c-0.428,0-1.036,0-2.058,0.096c-0.438,0.041-0.838,0.264-1.102,0.611

	c-0.029,0.038-0.041,0.086-0.034,0.132c0.037,0.245-0.12,0.477-0.362,0.534c-0.791,0.186-1.512,0.565-2.113,1.109

	c-1.4,1.268-2.114,1.799-3.58,2.617c-1.028,0.571-1.932,1.31-2.7,2.198c-0.322,0.371-1.009,0.779-2.629,1.697

	c-0.149,0.084-0.257,0.227-0.296,0.395c-0.081,0.351-0.371,0.615-0.727,0.667c-1.442,0.208-1.858-0.143-2.687-0.687

	c-0.425-0.279-0.755,0.301-0.648,0.68c0.002,0.006,0.004,0.012,0.005,0.019c0.102,0.363,0.031,0.752-0.189,1.058

	c-0.221,0.306-0.569,0.495-0.945,0.513c-0.995,0.048-1.989-0.163-2.879-0.611c-0.079-0.04-0.17-0.047-0.253-0.02

	c-1.446,0.462-2.296,2.194-1.937,2.231c2.492,0.271,2.45,0.704,3.45,1.34c1.184,0.75,0.61,3.066,2.412,3.261

	c0.009,0.001,0.02,0.002,0.029,0.003c0.224,0.019,0.41,1.843,0.452,2.072c0.03,0.17-0.042,0.342-0.185,0.438

	c-0.001,0-0.001,0-0.001,0c-0.539,0.357-0.898,0.928-0.983,1.568c-0.163,1.211-0.039,2.499-0.852,3.537

	c-0.344,0.44-1.129,1.246-2.051,0.895c-0.986-0.375-2.043-0.598-3.098-0.648c-4.355-0.205-6.905-1.129-8.184-1.778

	c-0.938-0.477-2.084-0.25-2.771,0.55c0.001-0.001,0,0,0,0c-0.306,0.013-0.675,0.029-1.03,0.048

	c-0.642,0.036-1.095,0.643-0.944,1.268c0.34,1.415,0.343,2.851-1.313,7.087c-0.064,0.164-0.153,0.388-0.236,0.543

	c-0.537,1-2.473,2.959-2.002,3.479c0.053,0.059,0.127,0.092,0.204,0.093c0.403,0.009,0.761,0.262,0.905,0.639

	c0.123,0.32,0.146,0.671,0.062,1.004c-0.136,0.552-0.738,2.476-0.497,2.952c0.137,0.267,0.378,0.465,0.666,0.548

	c0.421,0.124,0.706,0.458,1.068,0.679c0.271,0.158,1.152-0.225,1.678-0.452c0.39-0.165,0.629-0.272,1.49,0.718

	c0.798,0.912,0.176,3.023,1.861,3.059c0.459,0.003,0.72-0.442,0.834-0.708c0.122-0.295,0.122-0.295,3.37-1.003

	c1.439-0.316,2.835,0.593,4.278,0.159c1.106-0.339,1.162-1.799,2.289-2.118c0.748-0.214,1.545,0.202,2.281-0.178

	c0.396-0.216,0.033-1.426,0.468-1.81c0.001-0.001,0.003-0.002,0.004-0.003c0.67-0.576,0.935-1.496,0.671-2.34

	c-0.124-0.404-0.099-0.528-0.037-0.816c0.072-0.349,1.135-0.957,1.744-2.357c0.052-0.119,0.112-0.229,0.192-0.302

	c1.987-1.818,4.682-2.244,6.936-3.533c1.979-1.134,0.599-4.189,2.936-5.118c2.163-0.86,3.768,2.141,5.989,0.87

	c2.357-1.344,5.292-3.02,5.909-3.049c0.642-0.03,1.222,0.13,1.709,0.353c0.744,0.342,1.374,0.895,1.807,1.591

	c2.138,3.436,6.213,4.896,8.699,7.976c0.372,0.462,2.267,1.592,2.988,2.269c1.17,1.094,0.499-0.329,1.516,1.428

	c0.005,0.008,0.01,0.017,0.015,0.025c0.496,0.769,1.372,2.127,0.544,2.476c-0.58,0.241-0.575,0.417-0.567,0.617

	c0.012,0.445-0.362,0.857-0.092,1.318c0.076,0.13,0.371,0.532,0.996,0.228c0.74-0.38,0.467-0.516,0.762-1.088

	c0.726-1.456,0.704-1.541,0.686-1.538c0.25-0.179,0.718-0.033,0.796-0.459c0.193-1.016-0.52-1.357-0.989-1.578

	c-0.299-0.147-0.858-0.411-0.522-1.278c0.008-0.022,0.018-0.045,0.028-0.066c0.003-0.008,0.007-0.015,0.01-0.023

	c0.354-0.763,1.247-1.106,2.021-0.779c0.565,0.242,1.002,0.36,1.211,0.944c0.038,0.106,0.061,0.207,0.057,0.286

	c-0.012,0.256-0.02,0.497,0.093,0.598c0.157,0.143,0.692,0.023,0.839-0.25c0.087-0.158,0.193-0.682,0.187-0.846

	c0-0.004,0-0.004,0-0.009c0-0.006-0.001-0.013-0.003-0.02c-0.003-0.025-0.014-0.049-0.027-0.071c-1.395-2.185-3.993-2.353-6-3.508

	c-0.225-0.13-0.363-0.355-0.389-0.597c-0.054-0.501-0.479-0.879-0.981-0.876c-1.23,0.013-2.39-0.588-3.089-1.603l-4.211-6.128

	c-0.177-0.256-0.343-0.524-0.496-0.798c-0.275-0.5-0.037-1.114,0.476-1.31c0.032-0.013,0.065-0.023,0.1-0.034

	c0.815-0.244,1.691,0.076,2.157,0.787c0.233,0.354,0.464,0.754,0.888,0.727c0.512-0.032,1.016,0.115,1.431,0.417l7.24,5.28

	c0.003,0.002,0.006,0.004,0.009,0.006c0,0,0.616,0.131,1.542,0.748c0.199,0.133,0.432,0.195,0.662,0.186

	c0.361-0.015,0.717,0.103,1.001,0.332c1.098,0.886,1.805,2.164,1.972,3.566c0.074,0.626,0.122,1.197,0.152,1.603

	c0,0.001,0,0.001,0,0.002c0.038,0.522,0.308,1,0.735,1.303c0.195,0.138,0.443,0.325,0.583,0.471c0.177,0.188,0.209,0.243,0.54,0.805

	c0.134,0.233,0.979,0.985,1.057,1.051c0.004,0.003,0.007,0.005,0.011,0.009c0.035,0.03,0.13,0.09,0.283,0.093

	c0.007,0,0.015,0,0.021,0c0.26,0.005,0.506-0.103,0.76-0.088c0.783,0.046,1.957,1.04,2.858,0.592c0.081-0.04,1.024-0.59,1.024-0.59

	l0.015-0.01c2.188-1.009-0.514-2.037-0.603-3.037c-0.031-0.362,0.102-0.625,0.342-0.789c0.227-0.154,0.516-0.19,0.811-0.052

	c0.166,0.074,0.359,0.054,0.508-0.051c0.001,0,0.002-0.001,0.002-0.001c0.178-0.126,0.301-0.314,0.345-0.528

	c0.238-1.149,1.416-1.484,2.577-1.484c0.969,0,1.926,0.246,2.771,0.716c0.346,0.192,0.738,0.283,1.139,0.26c0.002,0,0.003,0,0.005,0

	c0.754-0.043,1.47-0.303,2.078-0.75c0.285-0.209-0.362,0.564-1.792,1.107c-0.012,0.004-0.024,0.009-0.034,0.014

	c-0.597,0.244-0.926,0.881-0.782,1.509c0.289,1.26,2.917,2.507,1.198,4.127c-0.021,0.021-0.042,0.04-0.063,0.058

	c0.002,0.001,0.005,0.002,0.006,0.003c0.958,0.389,1.756,1.075,2.285,1.962c1.743,2.92,7.574,3.835,8.088,2.591

	c0.002-0.005,0.004-0.009,0.005-0.014c0.257-0.668,1.005-1.003,1.674-0.749c1.33,0.504,2.521,1.498,4.049,1.343

	c0.867-0.09,1.499-0.409,2.015-0.852c1.435-1.233,3.227-1.982,5.113-2.13c0,0,0.001,0,0.002,0c0.016-0.001,0.032,0.005,0.043,0.017

	c0.012,0.013,0.017,0.029,0.014,0.045c-0.949,5.569,5.25,11.751-0.864,16.803c-0.483,0.4-1.346,0.601-1.963,0.711

	c-5.515,0.975-11.101,0.102-16.636,0.476c-3.199,0.217-3.66-0.929-4.66-0.947c-0.006,0-0.012,0-0.016,0c-0.009,0-0.02,0-0.028,0

	c-1.079,0.022-1.285,0.023-2.894-0.344c-1-0.228-3.675-4.065-7.318-1.099c-1.044,0.852-1.667,1.957-1.636,2.592

	c0.454,9.108-10.762,2.41-11.592,1.41c-1.278-1.529-2.984-2.647-4.9-3.2c-2.107-0.61-4.649-1.437-6.253-2.275

	c-1.216-0.635-2.688-1.022-3.31-1.054c-0.225-0.037-0.336-1.143,0.351-1.835c1.812-1.827,2.378-2.562,1.802-3.531

	c-1.514-2.547-0.517-2.327-1.852-4.052c-0.005-0.005-0.009-0.011-0.013-0.017c-0.472-0.607-1.213-0.94-1.979-0.891

	c-22.656,1.444-27.532,2.101-32.002,4.244c-0.396,0.185-1.203,0.572-2.466,0.016c-0.967-0.427-2.061-0.47-3.058-0.12

	c-0.001,0-0.001,0-0.001,0c-1.466-0.968-3.386-0.872-4.748,0.235l-7.38,5.996c-0.745,0.605-1.398,1.337-1.914,2.148

	c-1.333,2.103-1.246,3.679-1.21,4.437c0.125,2.363-6.634,6.717-10.205,6.312c-0.005-0.001-0.009-0.001-0.016-0.001

	c0-0.004,0-0.004,0-0.004c-1.638,0.659-3.047,1.232-11.256,12.679c-4.51,6.284-4.51,6.284-3.6,8.027

	c0.489,0.936,1.486,2.839,0.735,8.057c-0.047,0.337-0.115,0.68-0.197,1.015c-0.039,0.156-0.085,0.319-0.131,0.474l-3.159,10.5

	c-0.884,2.934-0.304,6.126,1.559,8.56c0.001,0.001,0.001,0.002,0.002,0.002c0.01,0.015,0.019,0.027,0.026,0.043l0.688,1.298

	c0.114,0.215,0.224,0.441,0.323,0.664c0.676,1.534,1.62,10.109,4.155,14.006c0.397,0.609,0.86,1.175,1.38,1.685l7.993,7.858

	c1.404,1.381,4.192,2.322,6.127,2.694c5.703,1.096,11.757,1.138,17.366,3.255c0.272,0.103,0.64,0.244,0.93,0.258

	c6.498,0.438,11.823-4.966,18.115-5.409c1.479-0.101,4.488,0.861,5.253,5.266c0.567,3.28,5.63,2.242,8.015,1.545

	c1.082-0.316,2.24-0.259,3.286,0.167c0.008,0.004,0.014,0.011,0.015,0.021c0.001,0.007,0.002,0.017,0.004,0.025

	c0.072,0.713,0.702,1.234,1.415,1.174c0.021-0.001,0.043-0.003,0.063-0.005c0.41-0.041,0.81,0.148,1.036,0.491

	c1.301,1.968,1.048,3.238,0.849,4.19c-0.001,0.002-0.001,0.004-0.002,0.007c-0.003,0.011-0.005,0.022-0.008,0.033l-0.067,0.32

	c-0.002,0.013-0.005,0.024-0.007,0.037c-0.052,0.237-0.094,0.482-0.127,0.723c-0.658,4.827-0.258,7.07-2.493,8.86

	c-0.241,0.194-0.428,0.439-0.552,0.725c2.424,4.973,7.709,7.495,7.709,7.495c0.774,0.824,5.332,8.681,5.816,12.148

	c0.74,5.277,0.74,4.274,0.876,4.504c2.329,3.808,0.292,5.604-1.129,6.331c-0.434,0.224-0.654,0.394-0.773,0.628

	c-0.212,0.418-0.462,0.834-0.729,1.219c-0.232,0.332-3.147,8.206-3.133,9.838c0,0.003,0,0.006,0,0.009

	c0.012,1.496,2.489,2.936,3.36,4.152l5.604,7.827c0.096,0.135,0.198,0.271,0.302,0.4c1.938,2.445-1.045,5.902,0.688,8.357

	c0.565,0.801,1.948,4.011,2.677,4.515c1.135,0.782,5.891,7.656,4.48,8.823c-0.149,0.124-0.131,0.459-0.066,0.646

	c0.425,1.226,6.187,3.182,8.316,2.272c3.163-1.352,9.796-2.408,12.499-2.389c3.738,0.029,21.725-12.867,20.307-17.312

	c-0.019-0.058-0.024-0.121-0.015-0.181c0-0.002,0.001-0.002,0.003-0.004c2.103-2.482,8.204-5.536,8.038-5.85

	c-0.003-0.006-0.005-0.01-0.008-0.015c0.79-1.755,1.062-3.212,1.076-4.368c0.037-3.142,1.547-6.083,4.074-7.948

	c2.155-1.595,5.296-3.868,9.9-7.203c2.875-2.083,4.322-3.559,4.077-12.536c-0.227-8.234-1.694-14.661-2.185-16.049

	c-0.69-1.947-0.497-2.309,0.28-3.757c2.311-4.268,5.443-8.03,7.654-12.364c3.515-6.887,7.832-10.936,10.198-13.128

	c0.104-0.097,0.199-0.194,0.29-0.302c4.281-5.019,6.743-11.801,8.299-18.163c0.33-1.349,0.854-2.631,1.249-3.956

	c0.298-1.003,0.731-1.863,1.262-7.053c0.093-0.887-0.399-1.682-0.356-2.562c0.197-3.418-0.978-0.406-1.979,0.077

	c-2.557,1.214-1.174,0.788-2.286,1.509c-0.54,0.34-4.663,1.797-5.162,2.259c-0.582,0.539-1.129,1.141-1.973,1.25

	c-5.079,0.636-5.976,0.748-6.873-0.081c-0.85-0.782-1.39-1.765-1.615-2.897c-0.235-1.188-0.837-2.291-1.75-3.144

	c-4.862-4.536-14.39-7.483-16.646-19.79c-0.343-1.85-13.885-21.405-16.663-25.361c-0.311-0.441-0.411-0.999-0.275-1.521

	c0.002-0.006,0.002-0.013,0.004-0.02c0.528,1.346,2.629,3.75,3.912,5.074c0.367,0.38,0.884,0.554,1.304,0.236

	c0.5-0.38,0.168-0.943,0.271-2.735c0.029-0.512,0.771-0.549,0.854-0.047c0.188,1.119,0.728,2.139,1.544,2.927

	c1.798,1.734,3.988,4.952,5.431,7.215c0.885,1.389,2.082,2.519,3.517,3.329c2.053,1.16,2.67,3.058,4.138,7.562

	c1.739,5.334,7.982,6.608,10.289,11.424c1.954,4.063,2.474,8.693,4.957,12.55c0.017,0.027,0.034,0.054,0.054,0.079

	c0.316,0.428,0.857,0.628,1.377,0.507c3.776-0.886,8.156-5.613,9.241-6.457c2.278-1.775,3.933-3.11,5.147-4.132

	c1.654-1.393,2.805-3.269,3.299-5.374c0.418-1.774,3.116-3.328,3.927-3.333c2.111-0.016,1.164-2.757,2.044-3.984

	c0.938-1.295,1.01-2.745,2.089-3.893c0.348-0.369,0.752-0.668,1.206-0.893c0.046-0.022,0.077-0.065,0.087-0.116

	c0.266-1.383-0.602-2.646-0.589-4.003c0.004-0.35,0.329-0.621,0.679-0.551c0.012,0.002,0.024,0,0.035-0.008

	c0.009-0.007,0.017-0.018,0.019-0.03c0.749-4.271,2.189-7.878-1.587-9.651c-1.489-0.708-3.294,0.406-4.693-0.799

	c-0.008-0.007-0.017-0.014-0.023-0.021c-0.767-0.66-1.796-0.927-2.786-0.723s-1.83,0.856-2.272,1.766

	c-0.004,0.007-0.009,0.015-0.012,0.022c-0.387,0.789-1.138,1.333-2.008,1.457c-1.405,0.198-1.251,0.45-2.331,1.265

	c-0.001,0.001-0.002,0.001-0.004,0c-2.289-1.201-3.709-1.307-11.797-13.363c-2.414-3.592,0.869-5.391,2.004-4.076

	c0.002,0.002,0.005-0.002,0.005-0.002c0.002-0.001,0.005-0.002,0.008-0.004c1.007,1.091,5.103,5.429,8.427,7.285

	c1.129,0.629,4.543,1.493,5.167,0.349c2.309-4.224,3.972-1.162,4.293-0.482c1.698,3.612,6.435,0.462,7.489,0.515

	c2.305,0.118,2.098-0.356,8.703-4.093c2.617-1.483,5.762-1.712,8.566-0.625C411.866,207.407,414.033,209.698,414.969,212.557z

	 M281.296,193.159c0.075-0.592,0.542-1.024,0.649-1.604c0.052-0.264-0.037-0.399-0.262-0.423c-0.033-0.003-0.067-0.002-0.1,0.004

	c-0.151,0.028-0.284,0.116-0.441,0.135c-0.5,0.052-0.442-0.172-0.877,0.083c-0.222,0.129-0.421,0.3-0.682,0.361

	c-0.247,0.055-0.469-0.105-0.717-0.08c-0.338,0.027-0.548,0.378-0.902,0.37c-0.471-0.013-0.776-0.425-1.22-0.503

	c-0.283-0.051-0.444,0.269-0.716,0.247c-0.276-0.023-0.196-0.134-0.42-0.206c-0.348-0.117-0.748,1.135-0.676,1.258

	c0.11,0.189,0.276,0.217,0.371,0.225c0.008,0,0.018,0.001,0.024,0.002c0.188,0.016,0.342-0.127,0.53-0.137

	c0.529-0.035,2.231,1.141,2.817,1.391c0.19,0.081,0.4,0.111,0.579,0.22c0.338,0.204,0.585,0.53,0.94,0.7

	c0.119,0.058,0.319,0.151,0.604,0.102c0.201-0.034,0.499-0.09,0.815-1.128C281.745,193.761,281.246,193.544,281.296,193.159z"/>

</svg>

